<?xml version="1.0" encoding="UTF-8"?>
<svg version="1.1" xmlns="http://www.w3.org/2000/svg" width="3840" height="965">
<path d="M0 0 C0.94048187 0.00060425 1.88096375 0.0012085 2.84994507 0.00183105 C73.9077355 0.1250948 142.90775466 16.23741725 207.1875 46.1875 C208.15703613 46.63834961 209.12657227 47.08919922 210.12548828 47.55371094 C239.88475943 61.55100352 268.40336309 79.77534197 294.1875 100.1875 C294.86345215 100.72213867 295.5394043 101.25677734 296.23583984 101.80761719 C303.603402 107.66297066 310.85844735 113.61184326 317.78125 119.9921875 C319.08956452 121.18581211 320.40533843 122.37221343 321.75610352 123.51757812 C328.24340342 129.04249058 334.23852774 135.05243267 340.25952148 141.07421875 C342.11227468 142.92478967 343.97288706 144.76720076 345.83398438 146.609375 C352.02832796 152.77513368 357.91598622 158.98161525 363.32861328 165.85498047 C365.17890909 168.17672018 367.12007489 170.3737945 369.125 172.5625 C428.73952702 239.10076145 463.39894027 328.90582263 478.1875 444.1875 C478.24389648 444.97705078 478.30029297 445.76660156 478.35839844 446.58007812 C481.70632842 494.71895306 477.43798588 543.29933642 466.1875 590.1875 C465.86193115 591.59370605 465.86193115 591.59370605 465.52978516 593.02832031 C458.97729495 621.18237123 449.23043918 648.93641595 437.1875 675.1875 C436.68105957 676.29383789 436.17461914 677.40017578 435.65283203 678.54003906 C425.41945147 700.70763906 413.82676672 721.93328876 400.1875 742.1875 C399.52717773 743.1777417 399.52717773 743.1777417 398.85351562 744.18798828 C387.21119359 761.62172817 374.43511775 778.35010045 360.30859375 793.84765625 C358.37963665 795.97554815 356.49713647 798.13470859 354.625 800.3125 C351.62056009 803.76795283 348.4209639 806.97538451 345.15625 810.18359375 C343.23606819 812.13806452 341.45882691 814.16063939 339.6875 816.25 C336.76986071 819.64398857 333.62232314 822.52549458 330.2109375 825.4140625 C328.15941028 827.21211917 326.27230459 829.1032426 324.375 831.0625 C320.5341919 834.95561482 316.40877441 838.37066784 312.14453125 841.7890625 C309.63654306 843.82328277 307.18620147 845.90773999 304.7487793 848.02539062 C285.28254775 864.8524943 263.48844637 879.39861357 241.1875 892.1875 C240.52814453 892.56793457 239.86878906 892.94836914 239.18945312 893.34033203 C181.34884577 926.56473724 118.2361664 946.23734966 52.1875 954.1875 C51.1159668 954.32027344 50.04443359 954.45304688 48.94042969 954.58984375 C13.63011671 958.75363024 -23.57844149 957.71034408 -58.8125 953.1875 C-59.47582336 953.10264343 -60.13914673 953.01778687 -60.8225708 952.93035889 C-143.21504362 942.27856899 -223.13975159 910.3382463 -288.8125 859.1875 C-289.92441544 858.33194843 -291.03639816 857.47648428 -292.1484375 856.62109375 C-309.9592732 842.84747988 -326.36942676 827.69422002 -342.3125 811.8125 C-343.1492627 810.98041016 -343.98602539 810.14832031 -344.84814453 809.29101562 C-349.70941116 804.41706659 -354.3438747 799.42221464 -358.8125 794.1875 C-359.79733771 793.05786142 -360.78298395 791.9289271 -361.76953125 790.80078125 C-368.41346281 783.14290255 -374.77043675 775.33048372 -380.8125 767.1875 C-381.30331055 766.5279834 -381.79412109 765.8684668 -382.29980469 765.18896484 C-413.22378579 723.46567445 -437.19113174 677.73469971 -453.625 628.5 C-453.89006348 627.70879761 -454.15512695 626.91759521 -454.42822266 626.10241699 C-455.17567375 623.85877499 -455.9126554 621.61204671 -456.64453125 619.36328125 C-456.86571121 618.69490738 -457.08689117 618.02653351 -457.31477356 617.33790588 C-458.36056449 614.06830939 -458.8125 611.67240297 -458.8125 608.1875 C-450.20572321 610.38133223 -442.19048664 613.84717602 -434.05160522 617.3354187 C-429.82327301 619.14687738 -425.5870703 620.93977353 -421.3515625 622.734375 C-420.03949074 623.29094032 -420.03949074 623.29094032 -418.70091248 623.85874939 C-409.66343611 627.68646532 -400.58544645 631.41291256 -391.5 635.125 C-388.23417777 636.46045568 -384.9685754 637.79644788 -381.703125 639.1328125 C-380.88953522 639.4657431 -380.07594543 639.79867371 -379.23770142 640.14169312 C-370.06322049 643.89905797 -360.90619934 647.69835221 -351.75 651.5 C-348.36203097 652.90637483 -344.97400806 654.31261979 -341.5859375 655.71875 C-340.72920441 656.07431976 -339.87247131 656.42988953 -338.98977661 656.79623413 C-328.97642269 660.95098463 -318.95820999 665.09397481 -308.93875122 669.23397827 C-306.91902872 670.06858017 -304.89939367 670.90339376 -302.87985229 671.73843384 C-300.05685855 672.90562721 -297.23355205 674.07206081 -294.41015625 675.23828125 C-293.17363815 675.7497168 -293.17363815 675.7497168 -291.91213989 676.27148438 C-290.72791946 676.76032104 -290.72791946 676.76032104 -289.51977539 677.2590332 C-288.75511963 677.57817688 -287.99046387 677.89732056 -287.20263672 678.22613525 C-285.50369847 678.90948501 -283.78854603 679.55311014 -282.06396484 680.16888428 C-281.16444092 680.49672913 -280.26491699 680.82457397 -279.33813477 681.16235352 C-278.11079369 681.59004784 -278.11079369 681.59004784 -276.85865784 682.02638245 C-274.26895705 683.49594016 -273.75772853 684.76327943 -272.8046875 687.5390625 C-272.39564417 689.28871018 -272.02507566 691.04766966 -271.6875 692.8125 C-271.23175027 694.71606075 -270.76538386 696.61710734 -270.2890625 698.515625 C-270.05348633 699.46888672 -269.81791016 700.42214844 -269.57519531 701.40429688 C-260.97722139 732.7797459 -235.5717269 759.01110548 -208.0625 774.9375 C-176.45231589 792.50388036 -138.91590139 795.6915526 -104.3125 786.0625 C-69.82202324 775.6814001 -41.7431034 751.66715731 -24.65234375 720.2734375 C-16.29062866 704.4365925 -9.21654794 685.39009674 -9.94140625 667.21875 C-10.47904363 652.5185808 -10.47904363 652.5185808 -7.40429688 648.21777344 C-3.51319392 644.54472467 1.06499384 642.06705489 5.75732422 639.55761719 C9.81116563 637.27208795 13.46374067 634.46748878 17.1875 631.6875 C18.69456961 630.59223269 20.20368482 629.49977451 21.71484375 628.41015625 C22.45718262 627.87406738 23.19952148 627.33797852 23.96435547 626.78564453 C31.03362814 621.70377994 38.16969241 616.71510023 45.29199219 611.70800781 C54.05628716 605.5441527 62.78025544 599.33008119 71.45678711 593.04321289 C77.20323517 588.88455836 82.99052685 584.78704142 88.79296875 580.70703125 C93.9531672 577.07295434 99.0767894 573.39078599 104.1875 569.6875 C109.99316461 565.48064148 115.82266768 561.31147627 121.6875 557.1875 C127.82113158 552.87369752 133.92173471 548.5164975 140 544.125 C140.75925781 543.57650391 141.51851562 543.02800781 142.30078125 542.46289062 C146.25277534 539.64996367 146.25277534 539.64996367 149.98632812 536.56396484 C153.0443256 534.6516989 155.54819119 534.65623578 159.13671875 534.44921875 C160.54424686 534.35469213 161.95171556 534.2592777 163.35913086 534.16308594 C164.09582001 534.11696167 164.83250916 534.0708374 165.59152222 534.02331543 C181.25403943 533.0060106 196.12014378 530.75204662 211.1875 526.1875 C212.43926025 525.80899902 212.43926025 525.80899902 213.71630859 525.42285156 C232.97613155 519.38497283 251.33347998 509.65017453 267.1875 497.1875 C268.08726562 496.50816406 268.98703125 495.82882812 269.9140625 495.12890625 C306.71720322 466.41377138 329.96577496 423.21038039 336 377.1875 C341.50012272 330.54379443 328.96359774 283.01594421 299.96484375 245.85302734 C295.91503178 240.76143828 291.66479317 235.90542945 287.1875 231.1875 C286.74180664 230.7145752 286.29611328 230.24165039 285.83691406 229.75439453 C273.52204538 216.76757522 259.67885319 207.03725646 244.1875 198.1875 C243.53442871 197.81351074 242.88135742 197.43952148 242.20849609 197.05419922 C202.48705559 174.74884509 153.1521502 170.74870246 109.65722656 182.89404297 C63.78829192 196.33958006 25.03404437 226.89579606 1.6015625 268.61328125 C-9.59721237 289.35225537 -21.21594976 317.67308935 -19.56640625 341.75390625 C-18.75173445 357.49475478 -25.24447088 366.41637014 -34.71289062 378.46972656 C-37.76525449 382.42076313 -40.53685815 386.53987792 -43.3125 390.6875 C-44.3626035 392.23051591 -45.41471767 393.7721652 -46.46875 395.3125 C-47.005 396.09625 -47.54125 396.88 -48.09375 397.6875 C-51.99196484 403.35763068 -55.9362197 408.99591005 -59.87109375 414.640625 C-64.04744689 420.63661761 -68.19550826 426.65061435 -72.3125 432.6875 C-77.10561942 439.71581477 -81.94767405 446.70863671 -86.8125 453.6875 C-93.37464736 463.10234669 -99.87458679 472.55772921 -106.34375 482.03662109 C-107.72763855 484.0632265 -109.11305227 486.08876843 -110.5 488.11328125 C-111.148479 489.06267578 -111.148479 489.06267578 -111.81005859 490.03125 C-112.68539432 491.30021052 -113.57116662 492.56203589 -114.46728516 493.81640625 C-117.32110382 497.84295815 -119.81712873 501.94338386 -122.2109375 506.26171875 C-131.22807857 521.81167436 -131.22807857 521.81167436 -137.55517578 524.24023438 C-143.66705935 525.27541867 -149.69334375 524.7658869 -155.84228516 524.296875 C-160.46155149 524.12677543 -164.7509347 524.89541097 -169.25 525.875 C-170.06621826 526.05232666 -170.88243652 526.22965332 -171.72338867 526.41235352 C-188.14897124 530.20745187 -203.7568322 536.8170548 -217.8125 546.1875 C-223.00845361 545.86656225 -227.4672907 543.849486 -232.1875 541.8203125 C-233.41754509 541.30113503 -233.41754509 541.30113503 -234.67243958 540.77146912 C-236.452129 540.01955332 -238.23059509 539.26473689 -240.00796509 538.50735474 C-243.85499128 536.86835305 -247.70810725 535.24390613 -251.56098938 533.61872864 C-253.58624767 532.76441269 -255.61121686 531.9094111 -257.63591003 531.05375671 C-268.27475464 526.56042114 -278.94743401 522.1503447 -289.625 517.75 C-291.55015682 516.95595645 -293.47528689 516.16184803 -295.40039062 515.36767578 C-299.27146857 513.77088819 -303.14275091 512.17459744 -307.01416016 510.57861328 C-315.65850934 507.01451239 -324.30009928 503.44373129 -332.94189453 499.8734436 C-337.7254942 497.8971778 -342.5092263 495.92123265 -347.29296875 493.9453125 C-348.2407016 493.55384537 -349.18843445 493.16237823 -350.16488647 492.75904846 C-355.9648861 490.36340715 -361.76513524 487.96837101 -367.56556702 485.57377625 C-400.36110369 472.03474291 -400.36110369 472.03474291 -415.796875 465.63671875 C-416.68428879 465.26901367 -417.57170258 464.90130859 -418.48600769 464.52246094 C-422.8085571 462.7308354 -427.12981363 460.93620558 -431.44848633 459.13525391 C-438.48223955 456.20480791 -445.51719175 453.2857031 -452.60667419 450.49217224 C-455.37230379 449.40224702 -458.13282249 448.29969321 -460.89328003 447.19674683 C-462.7573029 446.45933607 -464.62966754 445.74312148 -466.50219727 445.02758789 C-467.59459717 444.59051514 -468.68699707 444.15344238 -469.8125 443.703125 C-471.235625 443.15060059 -471.235625 443.15060059 -472.6875 442.58691406 C-474.8125 441.1875 -474.8125 441.1875 -475.65820312 438.93286133 C-475.9845757 433.12580507 -475.03103027 427.37881724 -474.3125 421.625 C-474.22391724 420.90453491 -474.13533447 420.18406982 -474.04406738 419.44177246 C-463.36025725 333.65637047 -429.82790303 250.89610667 -375.8125 183.1875 C-375.31395508 182.5589209 -374.81541016 181.9303418 -374.30175781 181.28271484 C-367.94069125 173.28014509 -361.44103788 165.48750903 -354.4453125 158.03125 C-352.45976471 155.88662271 -350.54606981 153.72054892 -348.64453125 151.50390625 C-344.12183032 146.31321833 -339.25156915 141.48077355 -334.375 136.625 C-333.02051758 135.2647168 -333.02051758 135.2647168 -331.63867188 133.87695312 C-326.5247457 128.77043307 -321.31261082 123.87354986 -315.8125 119.1875 C-314.72929376 118.23831839 -313.64721255 117.28785096 -312.56640625 116.3359375 C-303.62315496 108.5349403 -294.33235165 101.26959714 -284.8125 94.1875 C-284.08514648 93.64448242 -283.35779297 93.10146484 -282.60839844 92.54199219 C-212.29050568 40.24636094 -125.44558987 7.00447442 -37.8125 1.1875 C-36.03516479 1.06048706 -36.03516479 1.06048706 -34.22192383 0.9309082 C-22.81349589 0.15629109 -11.43221283 -0.01367929 0 0 Z " fill="#C5C3C0" transform="translate(476.8125,5.8125)"/>
<path d="M0 0 C24.09 0 48.18 0 73 0 C88.7689177 32.66418667 88.7689177 32.66418667 94.1875 44.8125 C99.85983269 57.43197588 105.7303612 69.95017778 111.6875 82.4375 C117.92536967 95.51523085 124.09564733 108.61686233 130.140625 121.78515625 C133.2507168 128.55855659 136.40540125 135.31091684 139.5625 142.0625 C143.57396283 150.64265586 147.57301693 159.22838039 151.55078125 167.82421875 C151.94348709 168.67283478 152.33619293 169.52145081 152.74079895 170.39578247 C153.54595867 172.13583487 154.35109868 173.87589639 155.15621948 175.6159668 C161.88397836 190.1560255 168.65305447 204.67512312 175.49163818 219.16339111 C181.4231295 231.73254779 187.2506795 244.34629526 193 257 C200.38565751 241.28436494 207.59680981 225.50116007 214.62207031 209.62121582 C220.18389576 197.05135596 225.82191346 184.51774933 231.5 172 C237.38531289 159.02266807 243.22959023 146.02883717 249 133 C255.63433555 118.02166895 262.36997927 103.09055525 269.13134766 88.16918945 C269.9274328 86.41228298 270.72349432 84.65536581 271.51953125 82.8984375 C271.90608887 82.04527451 272.29264648 81.19211151 272.69091797 80.31309509 C276.1030388 72.77901175 279.49462568 65.23587325 282.875 57.6875 C283.38393799 56.55111084 283.89287598 55.41472168 284.41723633 54.24389648 C286.51145161 49.56545923 288.60400814 44.88628206 290.6953125 40.20654297 C292.14248504 36.96822287 293.59077685 33.73040501 295.03961182 30.49282837 C295.83578399 28.71268233 296.63057437 26.93191848 297.42529297 25.15112305 C301.1966918 16.72270154 305.093784 8.37046285 309 0 C333.42 0 357.84 0 383 0 C383 118.8 383 237.6 383 360 C358.91 360 334.82 360 310 360 C309.505 253.08 309.505 253.08 309 144 C304.71 153.24 300.42 162.48 296 172 C293.50456918 177.30063926 291.00894308 182.60064863 288.49850464 187.894104 C282.56901201 200.39969917 276.69391056 212.92869693 270.88061523 225.48876953 C266.64378599 234.63454469 262.35962174 243.75743089 258.0625 252.875 C253.30697467 262.96534083 248.56302381 273.06074843 243.85183716 283.171875 C238.80142994 294.01053777 233.74171557 304.84484893 228.66015625 315.66894531 C227.98594156 317.10578587 227.3124044 318.54294461 226.63964844 319.98046875 C226.32286133 320.65722656 226.00607422 321.33398438 225.6796875 322.03125 C225.40576172 322.61696777 225.13183594 323.20268555 224.84960938 323.80615234 C220.69402572 332.61667846 216.36145028 341.27709945 212 350 C197.81 350 183.62 350 169 350 C159.78589794 331.57179589 159.78589794 331.57179589 156.484375 324.6015625 C156.10650848 323.80690582 155.72864197 323.01224915 155.33932495 322.19351196 C154.14098878 319.67156868 152.94528158 317.14839227 151.75 314.625 C151.33514343 313.75049194 150.92028687 312.87598389 150.49285889 311.97497559 C144.04152929 298.37430673 137.67938128 284.73595634 131.40380859 271.05322266 C128.93059805 265.67409725 126.4331875 260.30622449 123.9375 254.9375 C120.10185739 246.68325822 116.27022441 238.42718864 112.4453125 230.16796875 C112.04830139 229.31074219 111.65129028 228.45351563 111.24224854 227.5703125 C110.84068542 226.70325684 110.43912231 225.83620117 110.02539062 224.94287109 C109.20442716 223.17024736 108.38346362 221.39762366 107.5625 219.625 C107.15555908 218.74628235 106.74861816 217.8675647 106.3293457 216.96221924 C102.23849288 208.12976994 98.14526471 199.29851477 94.0234375 190.48046875 C93.71439987 189.81921997 93.40536224 189.15797119 93.08695984 188.47668457 C91.69017494 185.48892435 90.29178781 182.50193867 88.89086914 179.51611328 C83.83556171 168.71683966 78.93549374 157.85808622 74 147 C73.67 217.29 73.34 287.58 73 360 C48.91 360 24.82 360 0 360 C0 241.2 0 122.4 0 0 Z " fill="#C5C3C0" transform="translate(2642,304)"/>
<path d="M0 0 C80.19 0 160.38 0 243 0 C243 21.45 243 42.9 243 65 C187.89 65 132.78 65 76 65 C76 91.4 76 117.8 76 145 C123.52 145 171.04 145 220 145 C220 166.78 220 188.56 220 211 C172.48 211 124.96 211 76 211 C76 238.39 76 265.78 76 294 C131.11 294 186.22 294 243 294 C243 315.78 243 337.56 243 360 C162.81 360 82.62 360 0 360 C0 241.2 0 122.4 0 0 Z " fill="#C5C2BF" transform="translate(1908,304)"/>
<path d="M0 0 C25.74 0 51.48 0 78 0 C80.18625 5.754375 82.3725 11.50875 84.625 17.4375 C94.05005072 42.20201878 103.60059604 66.91781779 113.15332031 91.63330078 C117.31648284 102.40541713 121.47387616 113.17975993 125.6315918 123.95397949 C127.91826727 129.87954915 130.20520975 135.80501575 132.4921875 141.73046875 C132.94555481 142.90513702 133.39892212 144.0798053 133.86602783 145.29006958 C136.63552621 152.46555459 139.40568402 159.64078467 142.17633057 166.81582642 C151.46546354 190.87162633 160.74738949 214.93012586 170 239 C177.11352808 257.50443118 184.23853101 276.00440356 191.375 294.5 C191.83787415 295.70004669 192.30074829 296.90009338 192.77764893 298.13650513 C197.33137371 309.94145114 201.89146392 321.74367069 206.5 333.52734375 C206.83802643 334.39247589 207.17605286 335.25760803 207.52432251 336.1489563 C209.05910579 340.07634258 210.59712824 344.0023876 212.14208984 347.92578125 C212.66515821 349.2616721 213.18811551 350.59760645 213.7109375 351.93359375 C214.15743652 353.06853271 214.60393555 354.20347168 215.06396484 355.37280273 C216 358 216 358 216 360 C188.61 360 161.22 360 133 360 C130.710625 353.60625 128.42125 347.2125 126.0625 340.625 C125.01074585 337.69101318 125.01074585 337.69101318 123.93774414 334.69775391 C118.85969213 320.49650476 113.93422848 306.25443783 109 292 C62.8 291.67 16.6 291.34 -31 291 C-31.99 294.63 -32.98 298.26 -34 302 C-34.66575798 304.12683763 -35.35151801 306.24766361 -36.06884766 308.35766602 C-36.44578766 309.4715419 -36.82272766 310.58541779 -37.21109009 311.73304749 C-37.60807098 312.89493088 -38.00505188 314.05681427 -38.4140625 315.25390625 C-39.03672501 317.08791237 -39.03672501 317.08791237 -39.67196655 318.95896912 C-40.54230732 321.52192421 -41.41479993 324.08413205 -42.2890625 326.64575195 C-43.40981553 329.92978317 -44.52632915 333.21523628 -45.64142799 336.50119114 C-46.70980182 339.64849879 -47.78069234 342.79494704 -48.8515625 345.94140625 C-49.25259186 347.12150772 -49.65362122 348.30160919 -50.06680298 349.51747131 C-50.43743866 350.60297775 -50.80807434 351.68848419 -51.18994141 352.80688477 C-51.51620514 353.76409927 -51.84246887 354.72131378 -52.17861938 355.70753479 C-53 358 -53 358 -54 360 C-80.4 360 -106.8 360 -134 360 C-133.2541863 355.5251178 -132.49846943 352.25945191 -130.92822266 348.12744141 C-130.49381363 346.97594101 -130.0594046 345.82444061 -129.61183167 344.63804626 C-129.12931699 343.37585632 -128.64672468 342.11369605 -128.1640625 340.8515625 C-127.65667015 339.51232409 -127.14980215 338.17288692 -126.64341736 336.83326721 C-125.55169905 333.94814791 -124.45662405 331.06433415 -123.35891724 328.18148804 C-121.59676843 323.55324344 -119.84242324 318.92206624 -118.08959961 314.2902832 C-117.48595784 312.69538456 -116.8823048 311.10049018 -116.27864075 309.50559998 C-115.82574645 308.30902173 -115.82574645 308.30902173 -115.36370277 307.08827019 C-114.43355143 304.63159797 -113.50266699 302.17520469 -112.57157898 299.71888733 C-106.47473797 283.63235856 -100.43137644 267.52595845 -94.39723969 251.41582489 C-92.99272902 247.66650502 -91.58741307 243.91748704 -90.18212891 240.16845703 C-88.20100361 234.88305148 -86.22005225 229.59758082 -84.2393837 224.31200409 C-80.57633139 214.53691306 -76.91159874 204.7624528 -73.24609375 194.98828125 C-72.96775192 194.24606827 -72.6894101 193.50385529 -72.40263367 192.739151 C-70.15411745 186.74339251 -67.90551064 180.74766801 -65.6568985 174.7519455 C-63.68919146 169.50521936 -61.72152545 164.25847783 -59.75390625 159.01171875 C-59.47558456 158.26956619 -59.19726288 157.52741364 -58.9105072 156.76277161 C-54.96017635 146.22896095 -51.01145984 135.69454625 -47.06372261 125.15976334 C-44.52201 118.37720669 -41.97988402 111.594805 -39.4375 104.8125 C-39.16218319 104.0780365 -38.88686638 103.343573 -38.60320663 102.58685303 C-31.92247116 84.76542411 -25.23163576 66.94783014 -18.5234375 49.13671875 C-18.24303242 48.39220774 -17.96262733 47.64769672 -17.67372513 46.88062477 C-11.78698946 31.25205137 -5.89246082 15.62641544 0 0 Z M38 88 C37.82033188 88.53091751 37.64066376 89.06183502 37.45555115 89.60884094 C35.11921754 96.51108454 32.77933607 103.41212145 30.4375 110.3125 C30.05451752 111.44099365 29.67153503 112.5694873 29.27694702 113.73217773 C24.03060121 129.18164016 18.7156393 144.60473153 13.3125 160 C8.1519444 174.71095908 3.11557495 189.45948996 -1.8125 204.25 C-2.26440201 205.60448242 -2.26440201 205.60448242 -2.72543335 206.98632812 C-3.57558961 209.53706083 -4.42319803 212.08862154 -5.26953125 214.640625 C-5.51776642 215.38652893 -5.76600159 216.13243286 -6.02175903 216.90093994 C-6.25410248 217.60426453 -6.48644592 218.30758911 -6.72583008 219.03222656 C-6.92485428 219.63311096 -7.12387848 220.23399536 -7.32893372 220.85308838 C-8.27654918 223.88475114 -9.12740015 226.94590052 -10 230 C22.34 230 54.68 230 88 230 C77.95206799 199.82549338 77.95206799 199.82549338 67.625 169.75 C66.90503136 167.6810455 66.18522735 165.6120337 65.46557617 163.54296875 C63.31419375 157.36064775 61.15784556 151.18006768 59 145 C58.66192322 144.03151123 58.32384644 143.06302246 57.9755249 142.06518555 C51.68026975 124.03287797 45.36410718 106.00812955 39 88 C38.67 88 38.34 88 38 88 Z " fill="#C5C3C0" transform="translate(2350,304)"/>
<path d="M0 0 C0.85738266 -0.00705963 1.71476532 -0.01411926 2.59812927 -0.02139282 C38.78221551 -0.25156915 38.78221551 -0.25156915 55.7421875 3.203125 C56.73347656 3.40180176 57.72476562 3.60047852 58.74609375 3.80517578 C78.10199715 7.80767439 96.47325991 13.67980554 114.0546875 22.765625 C115.31684082 23.41760864 115.31684082 23.41760864 116.60449219 24.08276367 C122.46258796 27.23410013 127.61049922 30.97942775 132.7421875 35.203125 C127.0818339 47.28989509 120.30112982 58.68784333 113.52441406 70.17333984 C110.78155674 74.8361973 108.07318235 79.51880909 105.3671875 84.203125 C104.89700195 85.01612061 104.42681641 85.82911621 103.94238281 86.66674805 C102.87523818 88.51196833 101.808642 90.35750578 100.7421875 92.203125 C96.67536913 90.71673684 93.14170492 88.73585634 89.4296875 86.515625 C60.12706048 69.5084579 22.90725141 59.89779666 -10.62890625 68.01953125 C-22.45486731 71.62004678 -31.43665741 77.16345921 -37.3515625 88.25390625 C-40.44962246 95.86997031 -40.63599225 105.24966733 -38.44921875 113.109375 C-32.50731573 126.4323963 -18.10765516 133.44421297 -5.1953125 138.515625 C-4.17727539 138.92095459 -3.15923828 139.32628418 -2.11035156 139.74389648 C12.00404548 145.2411141 26.38869478 150.03397906 40.73852539 154.87426758 C76.52263758 167.02117131 115.78574479 181.90615553 134.6171875 217.015625 C146.31099412 241.69948567 145.42574364 272.63653022 136.54882812 298.07861328 C126.03094783 325.78036702 105.07076032 345.81690582 78.6796875 358.51171875 C25.90880292 381.87895051 -39.22584193 376.2139711 -92.1328125 356.390625 C-103.45180653 352.00689905 -115.13359379 346.95260414 -125.2578125 340.203125 C-124.66835169 336.03864892 -123.71526781 332.34560765 -122.23242188 328.41308594 C-121.81528931 327.2988324 -121.39815674 326.18457886 -120.96838379 325.03656006 C-120.51733276 323.84887024 -120.06628174 322.66118042 -119.6015625 321.4375 C-119.13923218 320.20775452 -118.67690186 318.97800903 -118.20056152 317.71099854 C-116.97617435 314.45487353 -115.74504054 311.20133891 -114.51263428 307.94824219 C-113.50582838 305.28708982 -112.5039545 302.62409392 -111.50231171 299.96099472 C-109.43450279 294.46388987 -107.36294956 288.96818523 -105.28320312 283.47558594 C-104.9153772 282.50329041 -104.54755127 281.53099487 -104.1685791 280.52923584 C-103.2578125 278.203125 -103.2578125 278.203125 -102.2578125 276.203125 C-97.93931176 277.50967777 -93.9955794 279.23105256 -89.94140625 281.1730957 C-53.44333232 298.49576703 -6.19553145 308.57907716 33.4296875 296.390625 C44.03380095 292.37825775 53.8367097 286.14027312 58.6796875 275.453125 C61.64248854 266.39043948 61.79938774 257.95978497 57.7421875 249.203125 C46.41823581 227.19139869 8.62674999 220.76459627 -12.80606079 213.7220459 C-49.87452344 201.52327308 -91.73507806 186.47366173 -111.0703125 149.76171875 C-116.24544112 138.3893736 -119.81484023 125.73554875 -120.2578125 113.203125 C-120.309375 112.04941406 -120.3609375 110.89570313 -120.4140625 109.70703125 C-121.00748052 84.75874853 -114.68281202 60.49086954 -98.2578125 41.203125 C-97.67644531 40.47738281 -97.09507813 39.75164062 -96.49609375 39.00390625 C-75.97143954 14.34850402 -42.48844091 3.69472044 -11.64205933 0.40585327 C-7.76160031 0.07590474 -3.89278682 0.02143489 0 0 Z " fill="#C5C3C0" transform="translate(1333.2578125,297.796875)"/>
<path d="M0 0 C97.35 0 194.7 0 295 0 C295 21.45 295 42.9 295 65 C259.03 65 223.06 65 186 65 C186 162.35 186 259.7 186 360 C160.92 360 135.84 360 110 360 C110 262.65 110 165.3 110 65 C73.7 65 37.4 65 0 65 C0 43.55 0 22.1 0 0 Z " fill="#C4C3BF" transform="translate(1530,304)"/>
<path d="M0 0 C0.68513672 0.20898926 1.37027344 0.41797852 2.07617188 0.63330078 C33.55864356 10.57395823 58.71189864 33.31822044 73.87451172 62.33984375 C88.07059495 90.92341807 89.72342698 124.69922648 79.8125 154.875 C73.65834451 172.69510801 63.92385437 187.2956642 51 201 C50.38769531 201.67675781 49.77539062 202.35351562 49.14453125 203.05078125 C39.02025485 213.82266595 26.35077756 221.00187491 13 227 C11.93265625 227.48339844 10.8653125 227.96679688 9.765625 228.46484375 C-13.00868199 237.97340593 -42.23820815 239.93161663 -66 233 C-66.66531738 232.80664062 -67.33063477 232.61328125 -68.01611328 232.4140625 C-84.18325653 227.57176584 -99.03477455 219.83420083 -112 209 C-112.99515625 208.16855469 -113.9903125 207.33710938 -115.015625 206.48046875 C-137.09360298 187.42774276 -152.03690708 159.0866876 -155 130 C-156.82420275 92.50893367 -147.96396184 61.21412992 -122.8125 32.9375 C-92.55312011 0.07682832 -42.73413533 -13.26547255 0 0 Z M-102.125 56.125 C-119.18080261 75.53987228 -125.25708857 99.04175706 -124.16845703 124.4765625 C-122.59560187 148.03747696 -109.70357726 169.10992603 -92.54345703 184.68603516 C-72.43078374 201.8082129 -47.80791023 206.89896726 -22 205 C-1.78743514 202.37027384 15.81203075 192.18796925 30 178 C30.7425 177.2575 31.485 176.515 32.25 175.75 C48.99763108 157.95564198 55.93173793 134.88435518 55.28515625 110.87109375 C54.36754333 91.24032033 46.57456312 72.96078086 34 58 C33.40574219 57.26007813 32.81148437 56.52015625 32.19921875 55.7578125 C17.79753805 38.52350309 -4.84966917 28.05990447 -27 26 C-56.08838258 24.17998045 -81.93606779 35.12601804 -102.125 56.125 Z " fill="#C5C3C0" transform="translate(670,245)"/>
<path d="M0 0 C1.50366163 1.26649874 3.00418683 2.53674128 4.5 3.8125 C5.510625 4.575625 6.52125 5.33875 7.5625 6.125 C26.92413008 23.83883178 37.70986458 49.64044608 39.39794922 75.49365234 C40.2342387 94.49623007 35.96361781 111.88070179 27.5 128.8125 C26.96503906 129.88371094 26.43007813 130.95492187 25.87890625 132.05859375 C21.51566507 140.10495459 15.83796796 146.3172394 9.5 152.8125 C8.53126953 153.89144531 8.53126953 153.89144531 7.54296875 154.9921875 C-8.13594173 172.00329299 -32.90210628 181.59561817 -55.64477539 182.93920898 C-86.01773074 183.99657024 -111.45731641 174.91752234 -134.0859375 154.4765625 C-140.66519599 148.22120597 -145.6181113 141.42308665 -150.5 133.8125 C-150.98984375 133.06097656 -151.4796875 132.30945313 -151.984375 131.53515625 C-153.125 129.6875 -153.125 129.6875 -154.5 126.8125 C-154.17 125.8225 -153.84 124.8325 -153.5 123.8125 C-152.55084717 124.20928955 -151.60169434 124.6060791 -150.6237793 125.01489258 C-142.00151702 128.61819237 -133.37596275 132.21348145 -124.74630737 135.79904175 C-120.29340874 137.64943027 -115.84279624 139.50507241 -111.3952179 141.36820984 C-108.43301655 142.60656302 -105.46620508 143.83377454 -102.5 145.0625 C-100.93125122 145.72342651 -100.93125122 145.72342651 -99.33081055 146.39770508 C-88.71871475 150.76769454 -78.70413363 153.37566479 -67.1875 153.25 C-66.18984619 153.24170166 -65.19219238 153.23340332 -64.16430664 153.22485352 C-43.59271291 152.75811005 -26.03451402 143.92593794 -11.875 129.1875 C1.83666461 113.29553536 7.65338793 93.65891882 6.5 72.8125 C4.61875332 57.50744228 -0.85862447 44.78110411 -10.5 32.8125 C-10.98082031 32.16796875 -11.46164062 31.5234375 -11.95703125 30.859375 C-17.90612367 23.24727979 -26.1913552 18.27251592 -34.73828125 14.02734375 C-35.42850876 13.68380859 -36.11873627 13.34027344 -36.82987976 12.98632812 C-44.98137043 8.99768319 -53.38119389 5.65533009 -61.8125 2.3125 C-64.25962471 1.3333625 -66.70574398 0.35174395 -69.15177917 -0.63011169 C-70.74443135 -1.2693238 -72.33737266 -1.90781601 -73.93061829 -2.54554749 C-82.50184899 -5.97929186 -91.01210398 -9.55314781 -99.5 -13.1875 C-98.5 -15.1875 -98.5 -15.1875 -96.76928711 -15.85766602 C-96.0294458 -16.05030029 -95.28960449 -16.24293457 -94.52734375 -16.44140625 C-93.30047852 -16.76334961 -93.30047852 -16.76334961 -92.04882812 -17.09179688 C-91.18708984 -17.30900391 -90.32535156 -17.52621094 -89.4375 -17.75 C-88.60283203 -17.97107422 -87.76816406 -18.19214844 -86.90820312 -18.41992188 C-56.96114436 -26.14593626 -24.23569293 -19.17906549 0 0 Z " fill="#C5C3C0" transform="translate(396.5,582.1875)"/>
<path d="M0 0 C9.52928169 7.30742845 15.75955653 19.6973324 17.6015625 31.3515625 C19.36557363 46.38574826 16.61226668 60.9893271 7.3828125 73.15625 C-1.07657662 83.05992506 -12.74796724 89.75855623 -25.84765625 90.97021484 C-41.46777907 91.92746573 -54.76082436 88.80641248 -67.17578125 78.88671875 C-76.88981792 70.05726552 -82.31428939 57.86269643 -83.015625 44.875 C-83.4925828 29.63465426 -80.62328078 17.3638303 -70.5546875 5.59375 C-51.76736498 -14.36971462 -22.07816076 -14.90992674 0 0 Z M-63.8046875 11.78125 C-71.77885221 21.70215915 -74.76476624 33.15799249 -73.8046875 45.78125 C-71.99625586 57.39812441 -67.36784095 66.44150796 -58.3125 74.0234375 C-47.92542332 81.30409872 -37.16617675 82.86761651 -24.8046875 81.78125 C-13.13769082 79.46110861 -4.80848308 73.22657228 2.1953125 63.78125 C8.62108637 53.49200462 9.67260853 41.80641149 7.73046875 29.94140625 C4.96613018 19.5874044 -0.94601858 10.83961021 -9.8046875 4.78125 C-27.71555301 -4.379269 -49.36441049 -3.47256375 -63.8046875 11.78125 Z " fill="#C5C3C0" transform="translate(3152.8046875,309.21875)"/>
<path d="M0 0 C4.16625 -0.0825 8.3325 -0.165 12.625 -0.25 C13.92775879 -0.28641602 15.23051758 -0.32283203 16.57275391 -0.36035156 C24.52355655 -0.43667139 28.02389188 0.29810623 33.8125 5.6875 C36.02218917 9.99057891 36.76605543 14.55120485 35.3046875 19.22265625 C33.41808104 23.19641394 31.19292656 25.95495635 28 29 C28.30292969 29.52956299 28.60585937 30.05912598 28.91796875 30.60473633 C30.28529491 33.0036049 31.64272891 35.40792919 33 37.8125 C33.47695312 38.64587891 33.95390625 39.47925781 34.4453125 40.33789062 C34.89648438 41.14033203 35.34765625 41.94277344 35.8125 42.76953125 C36.23144531 43.50792236 36.65039062 44.24631348 37.08203125 45.00708008 C38 47 38 47 38 50 C34.7 50 31.4 50 28 50 C26.49498012 47.21093539 24.9958193 44.41899281 23.5 41.625 C23.07074219 40.8309375 22.64148437 40.036875 22.19921875 39.21875 C21.79316406 38.45820313 21.38710937 37.69765625 20.96875 36.9140625 C20.59169922 36.2123291 20.21464844 35.5105957 19.82617188 34.78759766 C19 33 19 33 19 31 C15.7 31 12.4 31 9 31 C9 37.27 9 43.54 9 50 C6.03 50 3.06 50 0 50 C0 33.5 0 17 0 0 Z M9 8 C9 12.95 9 17.9 9 23 C16.28257541 23.39343066 16.28257541 23.39343066 23 21 C25.15882937 18.84117063 25.90107521 17.49462393 26.5 14.5 C26.16162348 11.86488083 26.16162348 11.86488083 24.25 9.6875 C19.18355243 7.05684453 14.66060864 7.75118204 9 8 Z " fill="#C5C3C0" transform="translate(3103,324)"/>
</svg>
